<svg width="20" height="20" viewBox="0 0 20 20" xmlns="http://www.w3.org/2000/svg"><path d="M9.87 0.0140005C4.428 0.0140005 0.0240021 4.48 0.0240021 10C0.0240021 15.52 4.427 19.986 9.872 19.986C15.558 19.986 19.328 15.936 19.328 10.229C19.328 9.569 19.328 9.069 19.173 8.569H9.873V12H15.461C15.235 13.464 13.771 16.307 9.874 16.307C6.514 16.307 3.769 13.479 3.769 10C3.769 6.52 6.514 3.693 9.875 3.693C11.792 3.693 13.075 4.521 13.8 5.236L16.477 2.629C14.752 1 12.534 0.0130005 9.872 0.0130005L9.87 0.0140005Z" fill="#FFF" fill-rule="evenodd"/></svg>