<svg width="25" height="20" viewBox="0 0 25 20" xmlns="http://www.w3.org/2000/svg"><path d="M10.734 13.672c-.142.244-.463.363-.714.26-.244-.1-.324-.373-.18-.615.144-.235.453-.354.697-.256.25.086.34.364.202.612h-.006zm-1.315 1.67c-.4.63-1.256.906-1.905.616-.634-.286-.822-1.017-.42-1.632.397-.613 1.223-.885 1.86-.62.65.274.86 1 .466 1.637zm1.505-4.46c-1.97-.507-4.197.46-5.05 2.175-.87 1.747-.03 3.687 1.96 4.32 2.06.658 4.49-.35 5.333-2.235.83-1.844-.208-3.74-2.245-4.26h.002zm9.85-6.478c-.77-.844-1.94-1.217-3.066-.978-.29.06-.522.267-.613.543-.09.275-.025.578.17.794.198.216.496.312.784.25.55-.112 1.12.07 1.496.483.376.41.503.99.333 1.518-.092.277-.026.58.172.796.197.216.496.312.784.25.288-.06.52-.268.61-.545.343-1.047.13-2.237-.67-3.113v.002zM17.002.144c-.333.07-.604.31-.71.632-.105.32-.03.674.2.924.228.25.575.362.91.292 1.644-.35 3.353.195 4.48 1.428 1.127 1.234 1.5 2.968.98 4.548-.163.495.11 1.028.613 1.19.502.16 1.04-.11 1.204-.607.73-2.22.204-4.655-1.38-6.387C21.714.425 19.314-.343 17 .143zm-6.5 18.393c-4.14.4-7.71-1.445-7.98-4.124-.27-2.692 2.864-5.19 7-5.597 4.14-.406 7.71 1.442 7.983 4.123.266 2.682-2.87 5.184-7.01 5.588l.006.01zm7.864-9.54c.398-.993.44-1.848.007-2.456-.813-1.145-3.032-1.083-5.574-.03 0 0-.8.347-.595-.277.39-1.243.332-2.286-.276-2.884-1.38-1.368-5.05.05-8.2 3.156C1.368 8.836 0 11.303 0 13.436 0 17.515 5.3 20 10.483 20c6.793 0 11.314-3.9 11.314-6.997 0-1.87-1.592-2.93-3.028-3.37-.35-.112-.592-.18-.406-.636z" fill="#FFF" fill-rule="evenodd"/></svg>