<svg xmlns="http://www.w3.org/2000/svg" width="24.042" height="24.042" viewBox="0 0 24.042 24.042">
  <g id="icon_search" transform="translate(-818.979 -143)">
    <rect id="矩形_1539" data-name="矩形 1539" width="20" height="20" transform="translate(820 144)" fill="none"/>
    <path id="联合_7" data-name="联合 7" d="M-795-1665v-5q0-.036,0-.071a7.01,7.01,0,0,1-6-6.928,7.008,7.008,0,0,1,7-7,7.008,7.008,0,0,1,7,7,7.01,7.01,0,0,1-6,6.928q0,.035,0,.071v5a1,1,0,0,1-1,1A1,1,0,0,1-795-1665Zm-4-12a5.005,5.005,0,0,0,5,5,5.005,5.005,0,0,0,5-5,5.005,5.005,0,0,0-5-5A5.006,5.006,0,0,0-799-1677Z" transform="translate(2576.14 777.275) rotate(-45)" fill="#6e7d8e"/>
  </g>
</svg>
