<svg xmlns="http://www.w3.org/2000/svg" xmlns:xlink="http://www.w3.org/1999/xlink" width="30" height="30" viewBox="0 0 30 30">
  <defs>
    <style>
      .cls-1 {
        fill: #fff;
        opacity: 0;
      }

      .cls-2, .cls-3 {
        stroke-miterlimit: 10;
      }

      .cls-2 {
        fill: url(#linear-gradient);
      }

      .cls-3 {
        fill: none;
        stroke: #fff;
        stroke-linecap: round;
        stroke-width: 2px;
      }

      .cls-4, .cls-5 {
        stroke: none;
      }

      .cls-5 {
        fill: #fff;
      }
    </style>
    <linearGradient id="linear-gradient" x2="0" y2="1.143" gradientUnits="objectBoundingBox">
      <stop offset="0" stop-color="#3ed6b6"/>
      <stop offset="1" stop-color="#05d380"/>
    </linearGradient>
  </defs>
  <g id="tabbar_icon_6_2" data-name="tabbar icon_6_2" transform="translate(2.715 4)">
    <rect id="矩形_383" data-name="矩形 383" class="cls-1" width="30" height="30" transform="translate(-2.715 -4)"/>
    <g id="Rectangle_33" data-name="Rectangle 33" class="cls-2">
      <path class="cls-4" d="M 20.71489906311035 21 L 3.285099983215332 21 C 2.716300010681152 21 2.191819906234741 20.76869010925293 1.808259963989258 20.34868049621582 C 1.424700021743774 19.92867088317871 1.241819977760315 19.38538932800293 1.293310046195984 18.81892013549805 L 2.747849941253662 2.81892991065979 C 2.842129945755005 1.781970024108887 3.698410034179688 1 4.739640235900879 1 L 19.26036071777344 1 C 20.30158996582031 1 21.15786933898926 1.781970024108887 21.25214958190918 2.81892991065979 L 22.70668983459473 18.81892967224121 C 22.7581901550293 19.38538932800293 22.57530975341797 19.92865943908691 22.19174957275391 20.34866905212402 C 21.80818939208984 20.76869010925293 21.28370094299316 21 20.71489906311035 21 Z"/>
      <path class="cls-5" d="M 4.739639282226563 2 C 4.219020843505859 2 3.79088020324707 2.390989303588867 3.743749618530273 2.909460067749023 L 2.289209365844727 18.90946960449219 C 2.254459381103516 19.2916202545166 2.435600280761719 19.55270957946777 2.546670913696289 19.67433929443359 C 2.657739639282227 19.79595947265625 2.901369094848633 20 3.285100936889648 20 L 20.71490097045898 20 C 21.09862899780273 20 21.34225082397461 19.79595947265625 21.45331954956055 19.67433929443359 C 21.56439018249512 19.55271911621094 21.74552917480469 19.2916202545166 21.71079063415527 18.90946006774902 L 20.25625038146973 2.909469604492188 C 20.20911979675293 2.390989303588867 19.78097915649414 2 19.26036071777344 2 L 4.739639282226563 2 M 4.739639282226563 0 L 19.26036071777344 0 C 20.81196975708008 0 22.10755920410156 1.183149337768555 22.24803924560547 2.728389739990234 L 23.70257949829102 18.72838973999023 C 23.86228942871094 20.4852409362793 22.47900009155273 22 20.71490097045898 22 L 3.285100936889648 22 C 1.520999908447266 22 0.1376991271972656 20.4852409362793 0.2974205017089844 18.72838973999023 L 1.751960754394531 2.728389739990234 C 1.892440795898438 1.183149337768555 3.188030242919922 0 4.739639282226563 0 Z"/>
    </g>
    <path id="Oval_5" data-name="Oval 5" class="cls-3" d="M0,0A4,4,0,0,0,4,4,4,4,0,0,0,8,0" transform="translate(8 6)"/>
  </g>
</svg>
