<svg xmlns="http://www.w3.org/2000/svg" xmlns:xlink="http://www.w3.org/1999/xlink" width="30" height="30" viewBox="0 0 30 30">
  <defs>
    <style>
      .cls-1, .cls-3 {
        fill: #fff;
      }

      .cls-1 {
        opacity: 0;
      }

      .cls-2, .cls-4 {
        stroke-miterlimit: 10;
      }

      .cls-2 {
        fill: url(#linear-gradient);
      }

      .cls-4 {
        fill: url(#linear-gradient-2);
      }

      .cls-5, .cls-6 {
        stroke: none;
      }

      .cls-6 {
        fill: #fff;
      }
    </style>
    <linearGradient id="linear-gradient" x2="0" y2="1.143" gradientUnits="objectBoundingBox">
      <stop offset="0" stop-color="#3ed6b6"/>
      <stop offset="1" stop-color="#05d380"/>
    </linearGradient>
    <linearGradient id="linear-gradient-2" y1="0.07" y2="1.143" xlink:href="#linear-gradient"/>
  </defs>
  <g id="tabbar_icon_7" data-name="tabbar icon_7" transform="translate(1 3)">
    <rect id="矩形_384" data-name="矩形 384" class="cls-1" width="30" height="30" transform="translate(-1 -3)"/>
    <g id="Shape" class="cls-2" transform="translate(0 0.034)">
      <path class="cls-5" d="M 5.195644855499268 15.88845634460449 L 5.195644855499268 15.27000999450684 L 5.195644855499268 14.70192050933838 L 4.707674503326416 14.41104030609131 C 2.351394653320313 13.00648021697998 1.000004768371582 10.79496002197266 1.000004768371582 8.343540191650391 C 1.000004768371582 6.432380676269531 1.920184731483459 4.616190433502197 3.59102463722229 3.229540348052979 C 5.32341480255127 1.791800498962402 7.635264873504639 1.000000476837158 10.10070514678955 1.000000476837158 C 12.61293506622314 1.000000476837158 15.08024501800537 1.863190412521362 16.86998558044434 3.368240356445313 C 18.65622329711914 4.870343208312988 19.6992015838623 6.921364784240723 19.91942596435547 9.34253978729248 C 13.25449466705322 9.536556243896484 9.877514839172363 11.63402080535889 9.877514839172363 15.58455085754395 C 9.877514839172363 15.67196941375732 9.877514839172363 15.75733852386475 9.878561973571777 15.84195518493652 C 8.84239673614502 15.82451820373535 7.927990913391113 15.68413925170898 7.157574653625488 15.42400074005127 L 6.837424755096436 15.3159008026123 L 6.517314910888672 15.42415046691895 C 6.493709564208984 15.4321346282959 6.041122913360596 15.58543300628662 5.195644855499268 15.88845634460449 Z"/>
      <path class="cls-6" d="M 10.10070514678955 2 C 7.86800479888916 2 5.782955169677734 2.709940910339355 4.229644775390625 3.999050140380859 C 2.791833877563477 5.192310333251953 1.999994277954102 6.735210418701172 1.999994277954102 8.343540191650391 C 1.999994277954102 10.43393039703369 3.173534393310547 12.33236026763916 5.219695091247559 13.55207061767578 L 6.195644378662109 14.13383102416992 L 6.195644378662109 14.4773006439209 C 6.19618034362793 14.47711944580078 6.196624755859375 14.47696876525879 6.196974754333496 14.47685050964355 L 6.837174415588379 14.26035022735596 L 7.477484703063965 14.4765510559082 C 7.904716491699219 14.62080955505371 8.388310432434082 14.72296905517578 8.923213958740234 14.78232002258301 C 9.197851181030273 12.41999626159668 10.7022647857666 10.56785202026367 13.22863483428955 9.515970230102539 C 14.69660377502441 8.904767990112305 16.52090835571289 8.533648490905762 18.76592636108398 8.392707824707031 C 18.40249824523926 6.690665245056152 17.54243659973145 5.240324020385742 16.22636413574219 4.133590698242188 C 14.61396408081055 2.777660369873047 12.38124465942383 2 10.10070514678955 2 M 10.10070514678955 0 C 15.38474464416504 0 20.96344566345215 3.49846076965332 20.96344566345215 10.3277006149292 C 15.83519458770752 10.3277006149292 10.87751483917236 11.33442115783691 10.87751483917236 15.58455085754395 C 10.87751483917236 16.05691146850586 10.87751483917236 16.37145042419434 11.03330516815186 16.84379959106445 L 10.10070514678955 16.84379959106445 C 8.857954978942871 16.84379959106445 7.770275115966797 16.68634986877441 6.837664604187012 16.37145042419434 C 6.837664604187012 16.37145042419434 6.116424560546875 16.6153507232666 4.77961540222168 17.10206031799316 C 4.731464385986328 17.11969375610352 4.681339263916016 17.12836074829102 4.631481170654297 17.12836074829102 C 4.543071746826172 17.12836074829102 4.455488204956055 17.10111618041992 4.38116455078125 17.04829978942871 C 4.264925003051758 16.96570014953613 4.195705413818359 16.8309211730957 4.195644378662109 16.68708992004395 L 4.195644378662109 15.27000999450684 C 1.553615570068359 13.69511032104492 -5.7220458984375e-06 11.17660045623779 -5.7220458984375e-06 8.343540191650391 C -5.7220458984375e-06 3.778870582580566 4.506145477294922 0 10.10070514678955 0 Z"/>
    </g>
    <ellipse id="Oval_8" data-name="Oval 8" class="cls-3" cx="1.077" cy="1.091" rx="1.077" ry="1.091" transform="translate(6.462 5.455)"/>
    <ellipse id="Oval_8_Copy" data-name="Oval 8 Copy" class="cls-3" cx="1.077" cy="1.091" rx="1.077" ry="1.091" transform="translate(10.769 5.455)"/>
    <g id="Shape-2" data-name="Shape" class="cls-4" transform="translate(8.615 7.636)">
      <path class="cls-5" d="M 14.46815776824951 14.48682022094727 C 13.59536933898926 14.20974826812744 13.18130683898926 14.1075611114502 13.16074752807617 14.10253524780273 L 12.94333744049072 14.04933452606201 L 12.72397708892822 14.09389495849609 C 11.47303771972656 14.34804534912109 10.51346778869629 14.47158527374268 9.790457725524902 14.47158527374268 C 4.861227512359619 14.47158527374268 0.9999974966049194 11.51287460327148 0.9999974966049194 7.735795021057129 C 0.9999974966049194 5.927034854888916 1.842767477035522 4.248215198516846 3.373067378997803 3.008574962615967 C 4.972007274627686 1.713325023651123 7.18136739730835 1.000005006790161 9.594157218933105 1.000005006790161 C 14.52338790893555 1.000005006790161 18.38461685180664 3.958714962005615 18.38461685180664 7.735795021057129 C 18.38461685180664 9.809835433959961 17.13613700866699 11.73734474182129 14.95929718017578 13.02408504486084 L 14.46815776824951 13.31440544128418 L 14.46815776824951 13.88493537902832 L 14.46815776824951 14.48682022094727 Z"/>
      <path class="cls-6" d="M 9.594157218933105 1.999995231628418 C 7.409787178039551 1.999995231628418 5.423967361450195 2.634135246276855 4.002517700195313 3.785605430603027 C 2.711177825927734 4.831685066223145 1.999998092651367 6.234555244445801 1.999998092651367 7.735795021057129 C 1.999998092651367 10.95212554931641 5.421977043151855 13.47158527374268 9.790457725524902 13.47158527374268 C 10.44580745697021 13.47158527374268 11.34024715423584 13.35459518432617 12.52488708496094 13.11391448974609 L 12.96358680725098 13.02478504180908 L 13.39842796325684 13.13118553161621 C 13.40856170654297 13.13366413116455 13.43164539337158 13.13938808441162 13.4681568145752 13.14885520935059 L 13.4681568145752 12.74385452270508 L 14.45044708251953 12.16321468353271 C 15.37778759002686 11.61507511138916 16.13388824462891 10.92123508453369 16.63703727722168 10.15671539306641 C 17.13309669494629 9.402965545654297 17.38461685180664 8.588445663452148 17.38461685180664 7.735795021057129 C 17.38461685180664 4.519454956054688 13.96263694763184 1.999995231628418 9.594157218933105 1.999995231628418 M 9.594157218933105 -4.76837158203125e-06 C 15.07692718505859 -4.76837158203125e-06 19.38461685180664 3.37215518951416 19.38461685180664 7.735795021057129 C 19.38461685180664 10.31392478942871 17.81830787658691 12.4957447052002 15.46815776824951 13.88492488861084 L 15.46815776824951 15.1002950668335 C 15.46817779541016 15.27794456481934 15.38443756103516 15.44492530822754 15.24277687072754 15.54966449737549 C 15.14761543273926 15.62002372741699 15.03397941589355 15.65660953521729 14.91901397705078 15.65660953521729 C 14.86285305023193 15.65660953521729 14.8063907623291 15.64788627624512 14.75157737731934 15.63010501861572 C 13.49139785766602 15.21293449401855 12.92307758331299 15.07387542724609 12.92307758331299 15.07387542724609 C 11.94430732727051 15.27272510528564 10.76922702789307 15.47158527374268 9.790457725524902 15.47158527374268 C 4.307687759399414 15.47158527374268 -1.9073486328125e-06 12.09942531585693 -1.9073486328125e-06 7.735795021057129 C -1.9073486328125e-06 3.37215518951416 4.118247032165527 -4.76837158203125e-06 9.594157218933105 -4.76837158203125e-06 Z"/>
    </g>
    <ellipse id="Oval_8-2" data-name="Oval 8" class="cls-3" cx="1.077" cy="1.091" rx="1.077" ry="1.091" transform="translate(15.077 14.182)"/>
    <ellipse id="Oval_8_Copy-2" data-name="Oval 8 Copy" class="cls-3" cx="1.077" cy="1.091" rx="1.077" ry="1.091" transform="translate(19.385 14.182)"/>
  </g>
</svg>
