<svg xmlns="http://www.w3.org/2000/svg" xmlns:xlink="http://www.w3.org/1999/xlink" width="30" height="30" viewBox="0 0 30 30">
  <defs>
    <style>
      .cls-1, .cls-4 {
        fill: #fff;
      }

      .cls-1 {
        opacity: 0;
      }

      .cls-2, .cls-6 {
        fill: none;
      }

      .cls-2, .cls-3 {
        stroke: #fff;
        stroke-miterlimit: 10;
        stroke-width: 2px;
      }

      .cls-3 {
        fill: url(#linear-gradient);
      }

      .cls-5 {
        stroke: none;
      }
    </style>
    <linearGradient id="linear-gradient" x2="0" y2="1.143" gradientUnits="objectBoundingBox">
      <stop offset="0" stop-color="#3ed6b6"/>
      <stop offset="1" stop-color="#05d380"/>
    </linearGradient>
  </defs>
  <g id="tabbar_icon_4_2" data-name="tabbar icon_4_2" transform="translate(1 3)">
    <rect id="矩形_381" data-name="矩形 381" class="cls-1" width="30" height="30" transform="translate(-1 -3)"/>
    <g id="Rectangle_11_Copy" data-name="Rectangle 11 Copy" class="cls-2" transform="translate(11 10)">
      <path class="cls-5" d="M3,0h8a3,3,0,0,1,3,3V14a0,0,0,0,1,0,0H0a0,0,0,0,1,0,0V3A3,3,0,0,1,3,0Z"/>
      <path class="cls-6" d="M3,1h8a2,2,0,0,1,2,2v9a1,1,0,0,1-1,1H2a1,1,0,0,1-1-1V3A2,2,0,0,1,3,1Z"/>
    </g>
    <g id="Rectangle_11" data-name="Rectangle 11" class="cls-3" transform="translate(2)">
      <path class="cls-5" d="M3,0H13a3,3,0,0,1,3,3V24a0,0,0,0,1,0,0H0a0,0,0,0,1,0,0V3A3,3,0,0,1,3,0Z"/>
      <path class="cls-6" d="M3,1H13a2,2,0,0,1,2,2V22a1,1,0,0,1-1,1H2a1,1,0,0,1-1-1V3A2,2,0,0,1,3,1Z"/>
    </g>
    <rect id="Rectangle_20" data-name="Rectangle 20" class="cls-4" width="28" height="2" rx="1" transform="translate(0 22)"/>
    <rect id="Rectangle_20-2" data-name="Rectangle 20" class="cls-4" width="8" height="2" rx="1" transform="translate(6 6)"/>
    <rect id="Rectangle_20-3" data-name="Rectangle 20" class="cls-4" width="8" height="2" rx="1" transform="translate(6 11)"/>
    <rect id="Rectangle_20-4" data-name="Rectangle 20" class="cls-4" width="8" height="2" rx="1" transform="translate(6 16)"/>
  </g>
</svg>
