<svg xmlns="http://www.w3.org/2000/svg" xmlns:xlink="http://www.w3.org/1999/xlink" width="30" height="30" viewBox="0 0 30 30">
  <defs>
    <style>
      .cls-1, .cls-3 {
        fill: #fff;
      }

      .cls-1 {
        opacity: 0;
      }

      .cls-2, .cls-3 {
        stroke: #fff;
      }

      .cls-2 {
        stroke-miterlimit: 10;
        stroke-width: 2px;
        fill: url(#linear-gradient);
      }

      .cls-3 {
        stroke-width: 0.2px;
      }

      .cls-4 {
        stroke: none;
      }

      .cls-5 {
        fill: none;
      }
    </style>
    <linearGradient id="linear-gradient" x2="0" y2="1.143" gradientUnits="objectBoundingBox">
      <stop offset="0" stop-color="#3ed6b6"/>
      <stop offset="1" stop-color="#05d380"/>
    </linearGradient>
  </defs>
  <g id="tabbar_icon_3_2" data-name="tabbar icon_3_2" transform="translate(2 2)">
    <rect id="矩形_380" data-name="矩形 380" class="cls-1" width="30" height="30" transform="translate(-2 -2)"/>
    <g id="Oval_4" data-name="Oval 4" class="cls-2">
      <circle class="cls-4" cx="13" cy="13" r="13"/>
      <circle class="cls-5" cx="13" cy="13" r="12"/>
    </g>
    <path id="路径_1334" data-name="路径 1334" class="cls-3" d="M191.191,57.179a2.033,2.033,0,0,0-.724-.795,4.367,4.367,0,0,0-1.016-.486,8.723,8.723,0,0,0-1.3-.3.319.319,0,0,0-.079-.027.418.418,0,0,0-.079-.009.281.281,0,0,1-.089-.018q-.424-.07-.645-.115t-.565-.15a1.736,1.736,0,0,1-.521-.239,1.275,1.275,0,0,1-.318-.362.953.953,0,0,1-.141-.512,1.155,1.155,0,0,1,.512-1,2.28,2.28,0,0,1,1.342-.362,2.375,2.375,0,0,1,1.016.2,1.636,1.636,0,0,1,.645.495,1.433,1.433,0,0,1,.122.2.715.715,0,0,0,.628.428h.134a.852.852,0,0,0,.775-1.225,2.51,2.51,0,0,0-.687-.806,3.6,3.6,0,0,0-1.663-.68c0-.021.006-.042.006-.063v-.681a.869.869,0,1,0-1.738,0v.681c0,.014,0,.027,0,.042a4.8,4.8,0,0,0-1.008.242,2.991,2.991,0,0,0-1.351,1,2.706,2.706,0,0,0-.539,1.7,2.583,2.583,0,0,0,.177.981,2.2,2.2,0,0,0,.451.715,2.442,2.442,0,0,0,.724.494,5.864,5.864,0,0,0,.874.335q.424.124,1.042.247a1.042,1.042,0,0,1,.159.019c.329.071.574.123.733.159s.356.091.592.167a1.731,1.731,0,0,1,.521.247,1.289,1.289,0,0,1,.3.353.956.956,0,0,1,.133.5,1.209,1.209,0,0,1-.513,1.008,2.56,2.56,0,0,1-1.554.388q-1.442,0-1.854-.836a.783.783,0,0,0-.69-.47h-.2a.857.857,0,0,0-.743,1.287,2.485,2.485,0,0,0,.688.744,4.091,4.091,0,0,0,2.055.7v.578a.869.869,0,0,0,1.738,0v-.635a4.045,4.045,0,0,0,1.816-.727,2.7,2.7,0,0,0,1.078-2.269A2.524,2.524,0,0,0,191.191,57.179Z" transform="translate(-174.676 -43.321)"/>
  </g>
</svg>
