<svg xmlns="http://www.w3.org/2000/svg" xmlns:xlink="http://www.w3.org/1999/xlink" width="30" height="30" viewBox="0 0 30 30">
  <defs>
    <style>
      .cls-1, .cls-2 {
        fill: #fff;
      }

      .cls-2 {
        opacity: 0;
      }

      .cls-3, .cls-7 {
        fill: none;
      }

      .cls-3 {
        stroke: #acb1b7;
        stroke-width: 2px;
      }

      .cls-3, .cls-5 {
        stroke-miterlimit: 10;
      }

      .cls-4 {
        clip-path: url(#clip-path);
      }

      .cls-5 {
        fill: url(#linear-gradient);
      }

      .cls-6, .cls-8 {
        stroke: none;
      }

      .cls-8 {
        fill: #acb1b7;
      }
    </style>
    <clipPath id="clip-path">
      <rect id="矩形_379" data-name="矩形 379" class="cls-1" width="30" height="17" transform="translate(0.129 7)"/>
    </clipPath>
    <linearGradient id="linear-gradient" x1="0.452" y1="0.955" x2="0.123" y2="0.596" gradientUnits="objectBoundingBox">
      <stop offset="0" stop-color="#fff"/>
      <stop offset="1" stop-color="#eaecef"/>
    </linearGradient>
  </defs>
  <g id="tabbar_icon_2" data-name="tabbar icon_2" transform="translate(-0.129 -6)">
    <rect id="矩形_378" data-name="矩形 378" class="cls-2" width="30" height="30" transform="translate(0.129 6)"/>
    <g id="Rectangle_41" data-name="Rectangle 41" class="cls-3" transform="translate(5 12)">
      <rect class="cls-6" width="20" height="22" rx="6"/>
      <rect class="cls-7" x="1" y="1" width="18" height="20" rx="5"/>
    </g>
    <rect id="Rectangle_42" data-name="Rectangle 42" class="cls-1" width="2" height="6" rx="1" transform="translate(26 20)"/>
    <g id="蒙版组_36" data-name="蒙版组 36" class="cls-4">
      <g id="Rectangle_40" data-name="Rectangle 40" class="cls-5" transform="translate(15.143 0.927) rotate(45)">
        <path class="cls-6" d="M 2.984484672546387 20.22483825683594 C 2.337414741516113 20.22483825683594 1.7234947681427 19.89387893676758 1.342244744300842 19.33952903747559 C 1.123064756393433 19.02082824707031 0.8043447136878967 18.35833930969238 1.132394671440125 17.50215911865234 L 5.232584476470947 6.801168918609619 C 5.429974555969238 6.286008834838867 5.836334705352783 5.871458530426025 6.347464561462402 5.663818836212158 L 17.46423530578613 1.147848725318909 C 17.7176342010498 1.04490864276886 17.97610473632813 0.9927186965942383 18.23247528076172 0.9927186965942383 C 18.88735389709473 0.9927186965942383 19.50588417053223 1.330788731575012 19.88705444335938 1.897048711776733 C 20.10529518127441 2.221258640289307 20.41924476623535 2.893568754196167 20.06991386413574 3.75351881980896 L 15.55393505096436 14.87028884887695 C 15.34629440307617 15.38141822814941 14.93174457550049 15.78777885437012 14.41657447814941 15.98516845703125 L 3.71559476852417 20.08535957336426 C 3.474034786224365 20.17790794372559 3.228054761886597 20.22483825683594 2.984484672546387 20.22483825683594 Z"/>
        <path class="cls-8" d="M 18.23247528076172 1.992719650268555 C 18.10573577880859 1.992719650268555 17.9738941192627 2.020168304443359 17.84059524536133 2.074329376220703 L 6.723814964294434 6.590298652648926 C 6.468255043029785 6.694108963012695 6.265084266662598 6.901389122009277 6.166384696960449 7.158968925476074 L 2.066194534301758 17.85995864868164 C 1.910104751586914 18.26733779907227 2.034414291381836 18.58125877380371 2.166194915771484 18.77286911010742 C 2.357925415039063 19.05164909362793 2.671474456787109 19.22483825683594 2.984474182128906 19.22483825683594 C 3.105264663696289 19.22483825683594 3.230875015258789 19.2001781463623 3.357793807983398 19.15154838562012 L 14.05877494812012 15.05136871337891 C 14.31636428833008 14.95266914367676 14.52364540100098 14.74948883056641 14.62745475769043 14.49392890930176 L 19.14342498779297 3.377159118652344 C 19.30968475341797 2.967878341674805 19.18845367431641 2.650028228759766 19.0574836730957 2.455459594726563 C 18.86535453796387 2.170028686523438 18.54922485351563 1.992719650268555 18.23247528076172 1.992719650268555 M 18.23247528076172 -0.007282257080078125 C 20.23036575317383 -0.007282257080078125 21.83799743652344 2.058099746704102 20.99637413024902 4.129878997802734 L 16.48040390014648 15.24664878845215 C 16.16777420043945 16.01623916625977 15.55004501342773 16.62175941467285 14.77437400817871 16.91896820068359 L 4.073385238647461 21.0191478729248 C 3.705724716186523 21.1600227355957 3.338695526123047 21.2248363494873 2.984470367431641 21.2248363494873 C 1.003236770629883 21.2248363494873 -0.5893230438232422 19.20074844360352 0.1985950469970703 17.14436912536621 L 4.298784255981445 6.443378448486328 C 4.59599494934082 5.667698860168457 5.201505661010742 5.049978256225586 5.971095085144043 4.737348556518555 L 17.08787536621094 0.2213783264160156 C 17.47402572631836 0.06451225280761719 17.8600959777832 -0.007282257080078125 18.23247528076172 -0.007282257080078125 Z"/>
      </g>
    </g>
  </g>
</svg>
