<svg xmlns="http://www.w3.org/2000/svg" width="13.044" height="7.859" viewBox="0 0 13.044 7.859">
  <defs>
    <style>
      .cls-1 {
        fill: none;
        stroke: #7d8086;
        stroke-miterlimit: 10;
      }

      .cls-2 {
        fill: #7d8086;
      }
    </style>
  </defs>
  <g id="浏览icon" transform="translate(0.544 0.501)">
    <g id="浏览icon-2" data-name="浏览icon">
      <path id="Shape" class="cls-1" d="M12,3.454V3.5a.457.457,0,0,1-.125.249c-.125.151-.263.293-.4.431a10.438,10.438,0,0,1-2.548,1.9,6.814,6.814,0,0,1-1.906.681,5.615,5.615,0,0,1-2.192-.031,8.329,8.329,0,0,1-3.4-1.748,9.157,9.157,0,0,1-1.3-1.238.47.47,0,0,1,0-.641c.125-.15.262-.293.4-.431A10.405,10.405,0,0,1,3.073.771,6.871,6.871,0,0,1,4.98.093,5.615,5.615,0,0,1,7.172.124a8.313,8.313,0,0,1,3.4,1.746,9.252,9.252,0,0,1,1.3,1.239A.448.448,0,0,1,12,3.358Z"/>
      <path id="Shape-2" data-name="Shape" class="cls-2" d="M1.847,3.423A1.714,1.714,0,1,1,3.422,1.582c0,.044.006.09.006.131a1.657,1.657,0,0,1-1.581,1.71Z" transform="translate(4.286 1.714)"/>
    </g>
  </g>
</svg>
