<svg xmlns="http://www.w3.org/2000/svg" width="16" height="16" viewBox="0 0 16 16">
  <defs>
    <style>
      .cls-1 {
        fill: #fff;
        opacity: 0;
      }

      .cls-2 {
        fill: #05d380;
      }
    </style>
  </defs>
  <g id="nac_icon_home" transform="translate(-1118 -27)">
    <rect id="矩形_401" data-name="矩形 401" class="cls-1" width="16" height="16" transform="translate(1118 27)"/>
    <path id="Shape" class="cls-2" d="M6.455.238.147,7.11a.56.56,0,0,0,.421.938h.824v5.216A.739.739,0,0,0,2.131,14H5.285a.315.315,0,0,0,.315-.315V10.534A.743.743,0,0,1,6.339,9.8H7.668a.739.739,0,0,1,.736.739v3.151A.315.315,0,0,0,8.722,14h3.154a.736.736,0,0,0,.736-.735V8.048h.827a.56.56,0,0,0,.414-.938L7.545.238a.743.743,0,0,0-1.09,0Z" transform="translate(1119 28)"/>
  </g>
</svg>
