<svg xmlns="http://www.w3.org/2000/svg" width="150" height="46" viewBox="0 0 150 46">
  <defs>
    <style>
      .cls-1 {
        fill: #f1f1f1;
        opacity: 0;
      }

      .cls-2 {
        fill: #05d380;
      }

      .cls-3 {
        fill: #2b2e30;
      }
    </style>
  </defs>
  <g id="官网logo" transform="translate(-896 -135)">
    <rect id="矩形_1" data-name="矩形 1" class="cls-1" width="150" height="46" transform="translate(896 135)"/>
    <g id="组_10" data-name="组 10" transform="translate(260.613 -152.453)">
      <path id="路径_1" data-name="路径 1" class="cls-2" d="M670.579,292.121l-21.265,5a1.365,1.365,0,0,1-1.056-.184l-2.412-1.565a.3.3,0,0,1,.09-.546l21.329-5.49a.1.1,0,0,0,.027-.173l-.7-.442a1.709,1.709,0,0,0-1.325-.215l-21.2,5.252a2.215,2.215,0,0,0-1.683,2.151V324.87a2.561,2.561,0,0,0,1.045,2.064l3.555,2.611a4.729,4.729,0,0,0,3.882.792l6.789-1.6.025,3.332a.382.382,0,0,0,.661.257l4.47-4.8,7.625-1.792A2.019,2.019,0,0,0,672,323.773V293.244A1.154,1.154,0,0,0,670.579,292.121Zm-6.2,19.14-7.13,5.056a.66.66,0,0,1-1.043-.539v-8.1a.661.661,0,0,1,.92-.607l7.13,3.047A.661.661,0,0,1,664.375,311.261Z"/>
      <g id="组_3" data-name="组 3" transform="translate(683.018 289.684)">
        <g id="组_1" data-name="组 1" transform="translate(0 0.639)">
          <path id="路径_2" data-name="路径 2" class="cls-3" d="M728.9,293.292a1.089,1.089,0,0,1,1.512-.263v.033a1.057,1.057,0,0,1,.263,1.478l-4.7,6.766a1.076,1.076,0,0,1-1.51.328V301.6a1.065,1.065,0,0,1-.264-1.512Zm-1.314,8.443a1.109,1.109,0,0,1,1.182-.428,1.125,1.125,0,0,1,.755,1.051V320.98a1.071,1.071,0,0,1-1.082,1.083h-.034a1.092,1.092,0,0,1-1.083-1.083V306.069l-1.249,1.839a1.119,1.119,0,0,1-.69.46.928.928,0,0,1-.821-.2l-.066-.031a1.07,1.07,0,0,1-.3-1.479Zm4.434,11.166a3.558,3.558,0,0,1,.263-1.281,3.477,3.477,0,0,1,1.806-1.872,2.854,2.854,0,0,1,1.346-.3h2.695a3.382,3.382,0,0,1,3.12,2.169,3.206,3.206,0,0,1,.3,1.346v5.65a1.311,1.311,0,0,0,.328.92,1.418,1.418,0,0,0,.525.329,1.033,1.033,0,0,1,.821,1.052v.033a1.043,1.043,0,0,1-.427.854,1.084,1.084,0,0,1-.953.2,3.561,3.561,0,0,1-1.511-.921,5.472,5.472,0,0,1-.755-1.116,3.524,3.524,0,0,1-.262-1.346v-5.65a1.49,1.49,0,0,0-.33-.919,1.117,1.117,0,0,0-.852-.361h-2.695a1.076,1.076,0,0,0-.854.361,1.5,1.5,0,0,0-.36.952l-.493,7.949a1.044,1.044,0,0,1-1.117.985h-.065a.98.98,0,0,1-.756-.362,1.143,1.143,0,0,1-.263-.788Zm1.773-13.466a1.217,1.217,0,0,0,.361.887,1.122,1.122,0,0,0,.855.361h.821v-7.26a1.053,1.053,0,0,1,1.083-1.083h.032a1.054,1.054,0,0,1,1.085,1.083v7.26h.82a1.124,1.124,0,0,0,.855-.361,1.34,1.34,0,0,0,.327-.887v-5.058a1.094,1.094,0,0,1,1.083-1.084h.068a1.093,1.093,0,0,1,1.082,1.084v5.058a3.476,3.476,0,0,1-2.1,3.186,2.951,2.951,0,0,1-1.313.295h-3.842a2.858,2.858,0,0,1-1.314-.295,3.458,3.458,0,0,1-2.135-3.186v-5.058a1.116,1.116,0,0,1,1.085-1.084h.064a1.072,1.072,0,0,1,1.084,1.084Zm7.094,5.486A1.093,1.093,0,0,1,741.971,306v.065a1.094,1.094,0,0,1-1.084,1.084H733a1.072,1.072,0,0,1-1.083-1.084V306A1.072,1.072,0,0,1,733,304.92Zm5.945-8.638h5.353a1.074,1.074,0,0,1,1.085,1.084,1.1,1.1,0,0,1-.921,1.083v.1c-.229,2.135-.491,4.171-.82,6.142a54.221,54.221,0,0,1-1.479,6.635l2.989,8.736a1.077,1.077,0,0,1-.69,1.38,1.1,1.1,0,0,1-1.412-.657l-2.069-6.01q-.393,1.034-.887,2.069a32.3,32.3,0,0,1-2.364,4.17.9.9,0,0,1-.69.493,1.049,1.049,0,0,1-.82-.163l-.033-.032a1.063,1.063,0,0,1-.3-1.479,34.165,34.165,0,0,0,3.909-8.539l-3.219-9.524a1.04,1.04,0,0,1,.657-1.348l.066-.031a1.108,1.108,0,0,1,1.346.656l2.168,6.373c.229-1.019.426-2.1.624-3.186.3-1.84.526-3.744.756-5.78h-4.729a1.009,1.009,0,0,1-.854-.394,1.141,1.141,0,0,1-.2-.921l.887-3.776a1.076,1.076,0,0,1,1.28-.822h.066a1.061,1.061,0,0,1,.69.493,1.2,1.2,0,0,1,.13.822Z" transform="translate(-723.996 -292.275)"/>
          <path id="路径_3" data-name="路径 3" class="cls-3" d="M817.977,306.931a1.116,1.116,0,0,1,1.083,1.085v.064a1.115,1.115,0,0,1-1.083,1.084h-4.8v12.974a1.114,1.114,0,0,1-1.083,1.083h-.066a1.07,1.07,0,0,1-1.083-1.083V309.164H798.172a26.454,26.454,0,0,1-.361,3.842,12.989,12.989,0,0,1-3.58,7.324A17.776,17.776,0,0,1,791.6,322.5a.991.991,0,0,1-.855.13,1.014,1.014,0,0,1-.69-.46l-.031-.1a1.116,1.116,0,0,1,.293-1.445,11.662,11.662,0,0,0,5.322-8.211,22.6,22.6,0,0,0,.293-3.253h-4.63a1.071,1.071,0,0,1-1.083-1.084v-.064a1.072,1.072,0,0,1,1.083-1.085h4.665V296.717H792.03a1.066,1.066,0,0,1-1.05-1.084V295.6a1.066,1.066,0,0,1,1.05-1.085h25.126a1.1,1.1,0,0,1,1.085,1.085v.032a1.1,1.1,0,0,1-1.085,1.084h-3.974v10.214Zm-19.805,0h12.778V296.717H798.172Z" transform="translate(-757.076 -293.367)"/>
          <path id="路径_4" data-name="路径 4" class="cls-3" d="M857.684,300.551a3.777,3.777,0,0,1,1.347.264A3.472,3.472,0,0,1,861.167,304v14.353a1.234,1.234,0,0,0,1.248,1.282h.788a1.073,1.073,0,0,1,1.085,1.084v.031a1.093,1.093,0,0,1-1.085,1.085h-.788a3.5,3.5,0,0,1-3.449-3.482V304a1.212,1.212,0,0,0-.362-.887,1.291,1.291,0,0,0-.92-.36H856.5a1.092,1.092,0,0,1-1.083-1.083V301.6a1.086,1.086,0,0,1,1.083-1.051Zm25.455-3.678a1.073,1.073,0,0,1,1.085,1.083v.066a1.048,1.048,0,0,1-1.085,1.052h-2.134v9.491H883.6a1.065,1.065,0,0,1,1.085,1.052v.066a1.093,1.093,0,0,1-1.085,1.082h-2.593v9.953a1.066,1.066,0,0,1-1.052,1.083h-.066a1.065,1.065,0,0,1-1.05-1.083v-9.953h-7.126a1.947,1.947,0,0,0-.034.428,16.539,16.539,0,0,1-.689,3.415,18.5,18.5,0,0,1-1.544,3.613,21.035,21.035,0,0,1-2.1,2.857,1.052,1.052,0,0,1-.788.361.977.977,0,0,1-.822-.329,1.1,1.1,0,0,1-.034-1.477,14.248,14.248,0,0,0,1.84-2.562,15.475,15.475,0,0,0,1.381-3.186,16.914,16.914,0,0,0,.59-3.021v-.1h-2.857a1.092,1.092,0,0,1-1.083-1.082v-.066a1.064,1.064,0,0,1,1.083-1.052h2.924v-9.491h-2.431a1.068,1.068,0,0,1-1.085-1.052v-.066a1.094,1.094,0,0,1,1.085-1.083h2.431v-3.579a1.092,1.092,0,0,1,1.083-1.083h.066a1.094,1.094,0,0,1,1.083,1.083v3.579h7.029v-3.481a1.065,1.065,0,0,1,1.05-1.084h.066a1.066,1.066,0,0,1,1.052,1.084v3.481Zm-11.331,11.134v.559h7.029v-9.491h-7.029Z" transform="translate(-789.986 -292.21)"/>
        </g>
        <path id="路径_5" data-name="路径 5" class="cls-3" d="M859.239,291.851c-.018-.809.552-1.155,1.263-.766l4.12,2.251a.782.782,0,0,1,.038,1.476l-4.042,2.484c-.692.424-1.269.109-1.286-.7Z" transform="translate(-791.904 -290.926)"/>
        <g id="组_2" data-name="组 2" transform="translate(2.51 34.606)">
          <path id="路径_6" data-name="路径 6" class="cls-3" d="M731.4,364.848l1.587-3.965q.067-.447.439-.447a.357.357,0,0,1,.338.268.984.984,0,0,1-.034.268l-1.89,4.621a.458.458,0,0,1-.878,0l-1.857-4.621a.526.526,0,0,1-.068-.268c.022-.159.135-.248.338-.268q.27.03.439.417c0,.02.011.03.034.03Z" transform="translate(-729.037 -360.434)"/>
          <path id="路径_7" data-name="路径 7" class="cls-3" d="M745.564,363.328v2.3q-.034.3-.371.3-.372,0-.371-.3v-4.829q0-.328.371-.358a.366.366,0,0,1,.371.358v2l2.633-2.147.135-.059a.487.487,0,0,1,.3-.149.312.312,0,0,1,.3.3.332.332,0,0,1-.135.3l-2.532,2,2.768,2.355a.544.544,0,0,1,.135.3q-.034.239-.371.238a1.13,1.13,0,0,1-.371-.09Z" transform="translate(-736.962 -360.434)"/>
          <path id="路径_8" data-name="路径 8" class="cls-3" d="M760.228,364.729l-.405.984q-.068.208-.371.209c-.225,0-.338-.079-.338-.238a.821.821,0,0,1,.1-.328l1.89-4.5a.622.622,0,0,1,.54-.417.576.576,0,0,1,.54.417l1.924,4.5c.045.139.079.248.1.328q-.034.239-.371.238-.3,0-.371-.209l-.371-.984Zm2.633-.567-1.182-2.951h-.033l-1.182,2.951Z" transform="translate(-744.139 -360.434)"/>
          <path id="路径_9" data-name="路径 9" class="cls-3" d="M776.455,360.794v4.829q-.034.3-.372.3-.371,0-.371-.3v-4.829q0-.328.371-.358A.367.367,0,0,1,776.455,360.794Z" transform="translate(-752.473 -360.434)"/>
          <path id="路径_10" data-name="路径 10" class="cls-3" d="M785.352,364.61v-3.816q0-.328.405-.358a.367.367,0,0,1,.371.358v3.756q0,1.372-1.486,1.372-1.181-.06-1.215-.567c0-.179.078-.268.236-.268a.552.552,0,0,1,.3.119,1.374,1.374,0,0,0,.709.179Q785.352,365.416,785.352,364.61Z" transform="translate(-756.348 -360.434)"/>
          <path id="路径_11" data-name="路径 11" class="cls-3" d="M796.769,360.794v4.829c-.022.2-.147.3-.371.3q-.371,0-.371-.3v-4.829q0-.328.371-.358A.366.366,0,0,1,796.769,360.794Z" transform="translate(-762.673 -360.434)"/>
          <path id="路径_12" data-name="路径 12" class="cls-3" d="M805.059,364.729l-.4.984c-.045.139-.169.209-.371.209-.226,0-.338-.079-.338-.238a.831.831,0,0,1,.1-.328l1.891-4.5a.622.622,0,0,1,.54-.417.577.577,0,0,1,.54.417l1.924,4.5c.045.139.079.248.1.328q-.034.239-.371.238c-.2,0-.327-.07-.372-.209l-.371-.984Zm2.633-.567-1.181-2.951h-.034l-1.181,2.951Z" transform="translate(-766.65 -360.434)"/>
          <path id="路径_13" data-name="路径 13" class="cls-3" d="M821.35,361.656v3.965q-.034.3-.371.3c-.248,0-.371-.1-.371-.3v-4.77a.334.334,0,0,1,.337-.417q.27-.029.54.358l3.106,3.935h.034v-3.935q0-.328.371-.358a.366.366,0,0,1,.371.358v4.77q0,.358-.337.358a.589.589,0,0,1-.54-.3l-3.106-3.965Z" transform="translate(-775.015 -360.432)"/>
          <path id="路径_14" data-name="路径 14" class="cls-3" d="M841.428,363.447h-1.08c-.248,0-.371-.109-.371-.328,0-.179.123-.278.371-.3h1.283a.477.477,0,0,1,.574.537,2.316,2.316,0,0,1-2.633,2.564,2.548,2.548,0,0,1-2.7-2.713,2.64,2.64,0,0,1,2.8-2.773,2.5,2.5,0,0,1,2.126.865.355.355,0,0,1-.371.328.871.871,0,0,1-.439-.179,2.549,2.549,0,0,0-1.35-.417q-1.857.09-1.958,2.176.1,2.117,1.992,2.176a1.648,1.648,0,0,0,1.755-1.64Z" transform="translate(-783.182 -360.434)"/>
          <path id="路径_15" data-name="路径 15" class="cls-3" d="M854.349,370.344c.022-.219.169-.348.439-.387a.476.476,0,0,1,.439.387q-.034.358-.439.358Q854.349,370.7,854.349,370.344Z" transform="translate(-791.959 -365.215)"/>
          <path id="路径_16" data-name="路径 16" class="cls-3" d="M863.961,363.209q.1,2.117,1.891,2.176a3.052,3.052,0,0,0,1.215-.3,1.054,1.054,0,0,1,.439-.179.311.311,0,0,1,.3.3q-.27.686-1.958.715a2.548,2.548,0,0,1-2.7-2.713,2.632,2.632,0,0,1,2.734-2.773q1.417.09,1.789.805-.034.329-.3.328a.793.793,0,0,1-.405-.149,1.749,1.749,0,0,0-1.08-.387Q864.062,361.122,863.961,363.209Z" transform="translate(-796.378 -360.434)"/>
          <path id="路径_17" data-name="路径 17" class="cls-3" d="M878.6,363.209a2.643,2.643,0,0,1,2.7-2.773,2.67,2.67,0,0,1,2.7,2.773,2.7,2.7,0,1,1-5.4,0Zm.81,0q.067,2.117,1.89,2.176,1.79-.06,1.891-2.176-.1-2.087-1.891-2.176Q879.475,361.122,879.407,363.209Z" transform="translate(-804.134 -360.434)"/>
          <path id="路径_18" data-name="路径 18" class="cls-3" d="M897.086,361.3l-.709,4.382q-.034.239-.4.238c-.248,0-.372-.1-.372-.3a1.133,1.133,0,0,1,.034-.209.113.113,0,0,1,.034-.09l.844-4.382a.577.577,0,0,1,.574-.507.551.551,0,0,1,.575.358l1.283,3.965h.033l1.317-3.965q.067-.358.54-.358a.629.629,0,0,1,.607.507l.844,4.382a1.722,1.722,0,0,1,.034.3.3.3,0,0,1-.338.3q-.405,0-.405-.238l-.742-4.382-1.485,4.382a.37.37,0,0,1-.372.238.4.4,0,0,1-.4-.238l-1.451-4.382Z" transform="translate(-812.672 -360.434)"/>
        </g>
      </g>
    </g>
  </g>
</svg>
