<svg id="nav_icon_phone" xmlns="http://www.w3.org/2000/svg" width="16" height="16" viewBox="0 0 16 16">
  <defs>
    <style>
      .cls-1 {
        fill: #fff;
        opacity: 0;
      }

      .cls-2 {
        fill: #1b232e;
      }
    </style>
  </defs>
  <rect id="矩形_402" data-name="矩形 402" class="cls-1" width="16" height="16"/>
  <path id="Shape" class="cls-2" d="M4.855,11.146C1.088,7.381-.991,3.447.47,1.985L1.988.468c0-.056.056-.056.112-.113A1.69,1.69,0,0,1,4.46.636L6.2,2.828A1.651,1.651,0,0,1,6.09,5.076l-.9,1.012a14.4,14.4,0,0,0,2.078,2.7,14.381,14.381,0,0,0,2.7,2.079l.955-.956A1.65,1.65,0,0,1,13.171,9.8l2.192,1.742.112.113a1.628,1.628,0,0,1,0,2.36L13.957,15.53a1.754,1.754,0,0,1-1.263.448C10.823,15.977,7.8,14.1,4.855,11.146Zm8.823-4.1a4.51,4.51,0,0,0-4.5-4.5.531.531,0,0,1-.562-.562.531.531,0,0,1,.562-.562A5.637,5.637,0,0,1,14.8,7.043a.562.562,0,1,1-1.123,0Zm-2.248,0A2.254,2.254,0,0,0,9.181,4.8a.531.531,0,0,1-.562-.563.53.53,0,0,1,.562-.562,3.381,3.381,0,0,1,3.371,3.372.562.562,0,0,1-1.123,0Z" transform="translate(0.01 0.013)"/>
</svg>
